<svg width="24" height="28" fill="none" xmlns="http://www.w3.org/2000/svg"><path fill-rule="evenodd" clip-rule="evenodd" d="M15.3833 0H3.25641C1.96909.0016325.925949 1.04478.924316 2.33209V25.653c.001633 1.2873 1.044774 2.3304 2.332094 2.3321H14.9169v-.8344c-.0023-2.1011.6197-4.1561 1.7873-5.903.1236-.1852.0987-.4316-.0583-.5887l-3.265-3.2649c-.3017-.3021-.4617-.7176-.4406-1.144.0212-.4266.2217-.824.5516-1.0948.6357-.4859 1.5346-.4165 2.0882.1608l4.604 4.6041.6595-.6595-3.1282-3.1292V2.33209C17.7137 1.04478 16.6706.0016325 15.3833 0Zm1.3992 15.1987-.5429-.5429c-.8948-.9142-2.3339-1.0095-3.3414-.2209-.5329.438-.8562 1.081-.8899 1.7702-.0336.6891.2253 1.3604.7131 1.8485l2.9991 2.9992c-1.1185 1.8024-1.7183 3.8784-1.7332 5.9994H3.25641c-.77263 0-1.39926-.6266-1.39926-1.3992v-1.3993H13.5176v-.9328H1.85715V3.73134H16.7825V15.1987ZM1.85715 2.79851H16.7825v-.46642c0-.77262-.6266-1.399254-1.3992-1.399254H3.25641c-.77263 0-1.39926.626634-1.39926 1.399254v.46642ZM19.0906 10.8503l-.629.6875 2.8605 2.6222c.6733.6195 1.0572 1.4924 1.0574 2.4072v11.4179h.9329V16.5672c-.0012-1.1766-.4947-2.2985-1.361-3.0948l-2.8608-2.6221ZM3.72282 8.39552H5.5885c.51527 0 .93283-.41756.93283-.93283V5.59702c0-.51528-.41756-.93284-.93283-.93284H3.72282c-.51527 0-.93283.41756-.93283.93284v1.86567c0 .51527.41756.93283.93283.93283Zm0-2.7985H5.5885v1.86567H3.72282V5.59702Zm6.52988 2.7985H8.387c-.51527 0-.93283-.41756-.93283-.93283V5.59702c0-.51528.41756-.93284.93283-.93284h1.8657c.5153 0 .9328.41756.9328.93284v1.86567c0 .51527-.4175.93283-.9328.93283Zm0-2.7985H8.387v1.86567h1.8657V5.59702Zm2.7985 2.7985h1.8657c.5152 0 .9328-.41756.9328-.93283V5.59702c0-.51528-.4176-.93284-.9328-.93284h-1.8657c-.5153 0-.9329.41756-.9329.93284v1.86567c0 .51527.4176.93283.9329.93283Zm0-2.7985h1.8657v1.86567h-1.8657V5.59702ZM5.5885 13.0597H3.72282c-.51527 0-.93283-.4176-.93283-.9328v-1.8657c0-.51528.41756-.93284.93283-.93284H5.5885c.51527 0 .93283.41756.93283.93284v1.8657c0 .5152-.41756.9328-.93283.9328Zm0-2.7985H3.72282v1.8657H5.5885v-1.8657Zm-1.86568 7.4627H5.5885c.51527 0 .93283-.4176.93283-.9329v-1.8656c0-.5153-.41756-.9329-.93283-.9329H3.72282c-.51527 0-.93283.4176-.93283.9329v1.8656c0 .5153.41756.9329.93283.9329Zm0-2.7985H5.5885v1.8656H3.72282v-1.8656Zm6.52988-1.8657H8.387c-.51527 0-.93283-.4176-.93283-.9328v-1.8657c0-.51528.41756-.93284.93283-.93284h1.8657c.5153 0 .9328.41756.9328.93284v1.8657c0 .5152-.4175.9328-.9328.9328Zm0-2.7985H8.387v1.8657h1.8657v-1.8657Zm2.7985 2.7985h1.8657c.5152 0 .9328-.4176.9328-.9328v-1.8657c0-.51528-.4176-.93284-.9328-.93284h-1.8657c-.5153 0-.9329.41756-.9329.93284v1.8657c0 .5152.4176.9328.9329.9328Zm0-2.7985h1.8657v1.8657h-1.8657v-1.8657Zm-2.7985 7.4627H8.387c-.51527 0-.93283-.4176-.93283-.9329v-1.8656c0-.5153.41756-.9329.93283-.9329h1.8657c.5153 0 .9328.4176.9328.9329v1.8656c0 .5153-.4175.9329-.9328.9329Zm0-2.7985H8.387v1.8656h1.8657v-1.8656Zm-6.52988 7.4627H5.5885c.51527 0 .93283-.4176.93283-.9329v-1.8656c0-.5153-.41756-.9329-.93283-.9329H3.72282c-.51527 0-.93283.4176-.93283.9329v1.8656c0 .5153.41756.9329.93283.9329Zm0-2.7985H5.5885v1.8656H3.72282v-1.8656Zm6.52988 2.7985H8.387c-.51527 0-.93283-.4176-.93283-.9329v-1.8656c0-.5153.41756-.9329.93283-.9329h1.8657c.5153 0 .9328.4176.9328.9329v1.8656c0 .5153-.4175.9329-.9328.9329Zm0-2.7985H8.387v1.8656h1.8657v-1.8656Zm-.46644 5.597h-.93284v.9328h.93284v-.9328Z" fill="#495567"/></svg>