<svg width="24" height="24" fill="none" xmlns="http://www.w3.org/2000/svg"><path fill-rule="evenodd" clip-rule="evenodd" d="M21.4334 10.8333h1.0668c.2147 0 .3889-.1742.3889-.3889V7.33325c0-.21478-.1742-.38889-.3889-.38889h-3.6486l-.6292-1.25844V4.22214c0-.21478-.1741-.38889-.3889-.38889h-2.3333c-.2148 0-.3889.17411-.3889.38889V5.7777c0 .21477.1741.38889.3889.38889h2.093l.6292 1.25844v2.24156c0-.64434-.5223-1.16667-1.1667-1.16667-.6443 0-1.1666.52233-1.1666 1.16667v-.77778c0-.21478-.1742-.38889-.3889-.38889h-3.0633l-1.2145-.30372V1.88881c0-.85911-.6965-1.555558-1.55557-1.555558H8.11127c-.85911 0-1.55555.696448-1.55555 1.555558v4.27778H4.61127c-.64433 0-1.16666.52233-1.16666 1.16666v1.16667H.722385C.56512 8.49995.423355 8.5947.363177 8.74c-.060178.14529-.026923.31253.084264.42375l.891719.89175-.891719.8917c-.111187.1112-.144442.2785-.084264.4238.060178.1452.201943.24.359208.24H4.61127c.64434 0 1.16667-.5223 1.16667-1.1666V9.2777h.77778v3.8889H5.38905c-1.352.0016-2.49797.9952-2.69111 2.3333H1.50016c-.21477 0-.38889.1741-.38889.3889v1.5556c0 .2147.17412.3889.38889.3889h1.16667v.7777H.722385c-.214777 0-.388889.1741-.388889.3889v1.5556c0 .2148.174112.3889.388889.3889H5.00016c0 1.5034 1.21878 2.7222 2.72222 2.7222 1.50345 0 2.72222-1.2188 2.72222-2.7222h7c0 1.5034 1.2188 2.7222 2.7222 2.7222 1.5035 0 2.7223-1.2188 2.7223-2.7222h.3888c.1186 0 .2307-.054.3046-.1467.0738-.0928.1013-.2142.0746-.3297l-2.2237-9.6347Zm-5.5443-1.16671c0 .64431.5223 1.16671 1.1666 1.16671.6444 0 1.1667-.5224 1.1667-1.16671v8.16671h-1.1667v-.3889c0-.6444-.5223-1.1667-1.1666-1.1667v-4.2778c0-.2148-.1742-.3889-.3889-.3889h-4.2778v-1.0574l1.0722.268c.0309.0077.0626.0116.0945.0117h3.1111c.2147 0 .3889-.1742.3889-.3889v-.77781Zm1.5555-4.27778h-1.5555v-.77778h1.5555v.77778ZM2.66683 20.1666v-.7778H1.11127v.7778h1.55556Zm0-3.1111h-.77778v-.7778h.77778v.7778ZM22.1113 7.72214h-.7778v2.33336h.7778V7.72214Zm-3.1111 0h1.5555v2.33336h-1.5555V7.72214Zm-2.7223 9.72226c0-.2148-.1741-.3889-.3888-.3889h-1.5556v.7778h1.9444v-.3889Zm-3.9833-8.17837c.0309.00775.0626.01166.0945.01167h2.7222v.7778h-2.6744l-2.77007-.69264V8.6092l2.62777.65683Zm-4.18333-8.155c-.42955 0-.77777.34822-.77777.77778v1.55555h1.16666v-.77777c0-.21478.17411-.38889.38889-.38889h1.55555v-.38889c0-.42956-.3482-.77778-.77777-.77778H8.11127Zm.77778 3.11111c.21478 0 .38889-.17411.38889-.38889v-.77778h1.16666v.87734l-3.1111.93333v-.644h1.55555Zm1.55555 2.33333V4.74481l-3.1111.93333v.87733h3.1111Zm0 .77778v.6685l-1.07216-.26794c-.11619-.02911-.23932-.00305-.33375.07065-.09443.07369-.14963.18679-.14964.30657v1.55555c.00001.17838.12136.33392.29439.37722l1.26116.3154v1.2518H7.3335V7.33325h3.1111Zm4.6667 8.94445v-3.8889H7.3335v.7778h6.6111c.2148 0 .3889.1741.3889.3889v2.7222h.7778ZM5.00016 10.4444c0 .2147-.17411.3889-.38889.3889H1.66116l.50284-.5029c.15181-.1518.15181-.39801 0-.54987l-.50284-.50283h3.339v1.1667Zm-.77778-3.11115v1.16667h2.33334V6.94436H4.61127c-.21477 0-.38889.17411-.38889.38889ZM7.72239 22.8888c-1.07336-.0013-1.94316-.8711-1.94445-1.9444h.77778c0 .6443.52233 1.1666 1.16667 1.1666.64433 0 1.16666-.5223 1.16666-1.1666h.77778c-.00129 1.0733-.87109 1.9431-1.94444 1.9444Zm-.00001-1.5555c.21478 0 .38889-.1742.38889-.3889H7.3335c0 .2147.17411.3889.38888.3889Zm2.72222-1.1667H5.00016v-3.8889c0-.2148.17411-.3889.38889-.3889h4.66665c.2148 0 .3889.1741.3889.3889v3.8889Zm.7778 0h.7778v-4.2778c-.0013-1.0733-.8711-1.9432-1.9445-1.9444H5.38905c-1.07335.0012-1.94316.8711-1.94444 1.9444v4.2778h.77777v-3.8889c0-.6443.52234-1.1667 1.16667-1.1667h4.66665c.6444 0 1.1667.5224 1.1667 1.1667v3.8889Zm.735-6.2222h1.5983v3.8889h-.7778v-1.9445c.0001-.7323-.2958-1.4336-.8205-1.9444Zm.8205 4.6666v1.5556h5.4445V18.611h-5.4445Zm7.3889 4.2778c-1.0733-.0013-1.9431-.8711-1.9444-1.9444h.7778c0 .6443.5223 1.1666 1.1666 1.1666.6444 0 1.1667-.5223 1.1667-1.1666h.7778c-.0013 1.0733-.8711 1.9431-1.9445 1.9444Zm0-1.5555c.2148 0 .3889-.1742.3889-.3889h-.7778c0 .2147.1742.3889.3889.3889Zm-1.1666-1.1667v-2.7222h.7777v-.7778h-.7777v-5.8333h1.6333l2.1537 9.3333h-3.787Zm2.3333-3.5h-.7778v.7778h.7778v-.7778Zm-15.55556 0h.77778v.7778h-.77778v-.7778Zm2.33333 0H7.3335v.7778h.77777v-.7778Zm.77778 0h.77778v.7778h-.77778v-.7778Zm8.16665-7.3889c.2148 0 .3889.17411.3889.38889 0 .21477-.1741.38891-.3889.38891-.2148 0-.3889-.17414-.3889-.38891 0-.21478.1741-.38889.3889-.38889ZM.333496 3.05547H5.38905v.77778H.333496v-.77778ZM5.77794 4.61103H1.11127v.77778h4.66667v-.77778Z" fill="#495567"/></svg>