<svg width="26" height="20" fill="none" xmlns="http://www.w3.org/2000/svg"><path d="M11.2909 18.3423c-.127 0-.2513.0516-.341.1413s-.1413.2142-.1413.341c0 .1268.0516.2514.1413.3411.0897.0896.214.1413.341.1413.1268 0 .2512-.0517.3411-.1413.0897-.0897.1413-.2137.1413-.3411 0-.1268-.0516-.2513-.1413-.341-.0899-.0897-.2143-.1413-.3411-.1413Z" fill="#000"/><path fill-rule="evenodd" clip-rule="evenodd" d="m20.8978 10.2445-1.1241-5.07835c.3034-.04107.5709-.19538.7591-.41884.2222.13886.4843.2195.765.2195h.9647c.2664 0 .4823-.21592.4823-.48234V2.5551c0-.26642-.2159-.48235-.4823-.48235h-.9647c-.289 0-.5585.08555-.7847.23232-.2209-.24965-.5432-.40754-.902-.40754h-2.8473c-.5116 0-.9494.32087-1.1237.77175h-1.1433c-.6915 0-1.2541.5626-1.2541 1.25409 0 .69148.5626 1.25409 1.2541 1.25409h2.4827v.97203c0 .26642.2159.48235.4824.48235.2664 0 .4823-.21593.4823-.48235v-.97203h.8441l1.2108 5.47064-2.2915 4.0814c-.2505.4443-.7226.7204-1.2327.7204h-5.7204c-.2395-2.0084-1.95182-3.5709-4.02345-3.5709-.91664 0-1.78146.2986-2.50102.8635l-.00283.0023c-.85672.6738-1.39521 1.6407-1.5207 2.7051h-.99068c.06293-3.4676 2.90329-6.26899 6.38539-6.26899h3.42159c.27 0 .4899.21988.4899.49006v4.33183c0 .2664.2159.4824.4823.4824h2.5666c1.0471 0 2.0119-.5694 2.518-1.4857.2342-.4239.3584-.904.3588-1.388l.0024-1.6025c.0004-.26643-.2153-.48273-.4818-.48311h-.0005c-.2661 0-.482.21555-.4824.48161l-.0024 1.6028c-.0002.3218-.0827.641-.2384.9227-.3365.609-.9778.9873-1.6737.9873h-2.0842V9.67078c0-.24701-.0622-.47989-.1713-.68394.4334-.25041.7258-.71843.7258-1.25372 0-.79794-.6493-1.44703-1.447-1.44703h-1.7606c-.1692 0-.33141.0294-.48233.08291V2.13795c0-.79794-.64928-1.447032-1.44702-1.447032H5.28327C3.02756.690918 1.1517 2.34709.806901 4.50708c-.014508.04597-.022421.09477-.022421.14546l.000193.00447.000184.00419C.76187 4.84585.75 5.0337.75 5.22419v2.50912c0 .72446.53529 1.32626 1.2311 1.43083l1.06813 1.06816C1.63404 11.573.75 13.4689.75 15.5676v.3646c0 .2664.215924.4823.48234.4823h2.71073c-.00622.0311-.00961.0635-.00961.0965 0 .7.25907 1.3404.68565 1.8314H1.23234c-.266416 0-.48234.2161-.48234.4823 0 .2665.215924.4824.48234.4824h5.44294l.01613.0005c.01321.0005.02638.001.03964.001 1.54256 0 2.79759-1.255 2.79759-2.7976 0-.033-.00339-.0654-.00961-.0965h6.95587c.7595 0 1.4693-.364 1.9141-.9662h.6109c-.1374.3343-.2103.6945-.2103 1.0627 0 .7.2591 1.3404.6857 1.8314h-6.2552c-.2665 0-.4824.2161-.4824.4823 0 .2665.2159.4824.4824.4824h8.3113c.0187.0006.0372.0015.0558.0015 1.5426 0 2.7976-1.255 2.7976-2.7976 0-.3682-.0729-.7284-.2103-1.0627h.7891c.2664 0 .4824-.2159.4824-.4823 0-2.546-2.0246-4.6282-4.5482-4.7215ZM10.3243 7.25097h1.7606c.2658 0 .4823.2163.4823.48234 0 .26586-.2165.48234-.4823.48234h-1.7606c-.266 0-.48233-.21648-.48233-.48234 0-.26604.21633-.48234.48233-.48234Zm-8.60828-2.0861c-.00067.01976-.00133.0395-.00133.05932v2.50912c0 .26586.2163.48234.48215.48234h6.19792c.26604 0 .48234-.21648.48234-.48234V2.13813c0-.26604-.2163-.48234-.48234-.48234H5.28327c-1.60096 0-2.95887 1.05965-3.40956 2.51459h5.12131c.26642 0 .48234.21592.48234.48234s-.21592.48235-.48234.48235H1.71695l-.00093.0298Zm1.6456 4.01547h1.10374c-.23175.13227-.4554.27716-.67057.43317l-.43317-.43317ZM6.7497 18.3433c1.002-.0099 1.81425-.8279 1.81425-1.8323 0-.033.00339-.0654.00961-.0965H4.88854c.00622.0311.00961.0635.00961.0965 0 .992.79228 1.8018 1.77732 1.8314h.05558c.00355 0 .0071.0002.01064.0005l.00801.0004Zm-3.06984-2.8934c.11945-.7663.52191-1.4586 1.14349-1.9468.0015-.0009.00282-.0022.00433-.0032.54754-.4292 1.20567-.6562 1.90337-.6562 1.53898 0 2.8185 1.1314 3.05082 2.6062H3.67986ZM21.7801 3.03744h-.4823c-.266 0-.4823.21649-.4823.48234 0 .26605.2163.48235.4823.48235h.4823v-.96469Zm-7.5727.88593c0-.15959.1298-.28941.2894-.28941h1.0626v.33915c0 .08215.0083.16223.024.23966h-1.0866c-.1596 0-.2894-.12981-.2894-.2894Zm2.5564.2894h2.8473c.1321 0 .2397-.10739.2397-.23966v-.87123c0-.13208-.1076-.23967-.2397-.23967h-2.8473c-.1321 0-.2397.10759-.2397.23967v.87123c0 .13227.1076.23966.2397.23966ZM23.4201 16.511c0 1.0044-.8122 1.8224-1.8142 1.8323-.0063-.0001-.0125-.0009-.0187-.0009h-.0556c-.985-.0296-1.7773-.8394-1.7773-1.8314 0-.3832.1195-.7537.3395-1.0627h2.9868c.2201.309.3395.6795.3395 1.0627Zm-2.6289-5.3033-1.8394 3.276h5.4986c-.2344-1.8237-1.7809-3.2415-3.6592-3.276Z" fill="#495567"/><path d="M17.4618 8.56112c.2664 0 .4823-.21592.4823-.48234s-.2159-.48234-.4823-.48234h-.0017c-.2664 0-.4816.21592-.4816.48234s.2169.48234.4833.48234Z" fill="#000"/></svg>